# xmcd
#
# Track frame offsets:
# 150
# 19430
# 35250
# 50113
# 67859
# 88874
# 106640
# 125841
# 145097
# 160251
# 180787
# 203958
# 231138
# 249506
# 270187
# 295307
# 321432
# 343788
#
# Disc length: 4826 seconds
#
#
# Revision: 0
# Processed by: cddbd v1.5.2PL0 Copyright (c) Steve Scherf et al.
# Submitted via: FreeRIP 2.945 
#
DISCID=0312d812
DTITLE=khuyfgvh - huiyu
DYEAR=1923
DGENRE=Black Metal
TTITLE0=hter
TTITLE1=ftj
TTITLE2=jm
TTITLE3=htdtj
TTITLE4=cvbgm
TTITLE5=cm
TTITLE6=m
TTITLE7=cvfghjmcbgmn
TTITLE8=bm
TTITLE9=c gn
TTITLE10=c gb
TTITLE11=cx gmn
TTITLE12=cgnm
TTITLE13=c gmngtj
TTITLE14=cghj
TTITLE15=vbndtndtr
TTITLE16=dtjh
TTITLE17=dtuae6uj
EXTD=jkugvk,jhbougbv
EXTT0=
EXTT1=
EXTT2=
EXTT3=
EXTT4=
EXTT5=
EXTT6=
EXTT7=
EXTT8=
EXTT9=
EXTT10=
EXTT11=
EXTT12=
EXTT13=
EXTT14=
EXTT15=
EXTT16=
EXTT17=
PLAYORDER=
